<svg version="1.1" viewBox="0.0 0.0 32.0 32.0" fill="none" stroke="none" stroke-linecap="square" stroke-miterlimit="10" xmlns:xlink="http://www.w3.org/1999/xlink" xmlns="http://www.w3.org/2000/svg"><clipPath id="p.0"><path d="m0 0l32.0 0l0 32.0l-32.0 0l0 -32.0z" clip-rule="nonzero"/></clipPath><g clip-path="url(#p.0)"><path fill="#000000" fill-opacity="0.0" d="m0 0l32.0 0l0 32.0l-32.0 0z" fill-rule="evenodd"/><path fill="#6d9eeb" d="m1.3070866 20.064245l0 0c0 1.6235943 6.5782413 2.9397774 14.692913 2.9397774c8.114672 0 14.692913 -1.3161831 14.692913 -2.9397774l0 8.073204c0 1.6235943 -6.5782413 2.9397774 -14.692913 2.9397774c-8.114672 0 -14.692913 -1.3161831 -14.692913 -2.9397774z" fill-rule="evenodd"/><path fill="#a7c4f3" d="m1.3070866 20.064245l0 0c0 -1.6235924 6.5782413 -2.9397755 14.692913 -2.9397755c8.114672 0 14.692913 1.3161831 14.692913 2.9397755l0 0c0 1.6235943 -6.5782413 2.9397774 -14.692913 2.9397774c-8.114672 0 -14.692913 -1.3161831 -14.692913 -2.9397774z" fill-rule="evenodd"/><path fill="#000000" fill-opacity="0.0" d="m30.692913 20.064245l0 0c0 1.6235943 -6.5782413 2.9397774 -14.692913 2.9397774c-8.114672 0 -14.692913 -1.3161831 -14.692913 -2.9397774l0 0c0 -1.6235924 6.5782413 -2.9397755 14.692913 -2.9397755c8.114672 0 14.692913 1.3161831 14.692913 2.9397755l0 8.073204c0 1.6235943 -6.5782413 2.9397774 -14.692913 2.9397774c-8.114672 0 -14.692913 -1.3161831 -14.692913 -2.9397774l0 -8.073204" fill-rule="evenodd"/><path stroke="#351c75" stroke-width="1.0" stroke-linejoin="round" stroke-linecap="butt" d="m30.692913 20.064245l0 0c0 1.6235943 -6.5782413 2.9397774 -14.692913 2.9397774c-8.114672 0 -14.692913 -1.3161831 -14.692913 -2.9397774l0 0c0 -1.6235924 6.5782413 -2.9397755 14.692913 -2.9397755c8.114672 0 14.692913 1.3161831 14.692913 2.9397755l0 8.073204c0 1.6235943 -6.5782413 2.9397774 -14.692913 2.9397774c-8.114672 0 -14.692913 -1.3161831 -14.692913 -2.9397774l0 -8.073204" fill-rule="evenodd"/><path fill="#93c47d" d="m1.3070866 12.012567l0 0c0 1.6235943 6.5782413 2.9397764 14.692913 2.9397764c8.114672 0 14.692913 -1.3161821 14.692913 -2.9397764l0 8.073205c0 1.6235924 -6.5782413 2.9397755 -14.692913 2.9397755c-8.114672 0 -14.692913 -1.3161831 -14.692913 -2.9397755z" fill-rule="evenodd"/><path fill="#bedbb1" d="m1.3070866 12.012567l0 0c0 -1.6235933 6.5782413 -2.9397755 14.692913 -2.9397755c8.114672 0 14.692913 1.3161821 14.692913 2.9397755l0 0c0 1.6235943 -6.5782413 2.9397764 -14.692913 2.9397764c-8.114672 0 -14.692913 -1.3161821 -14.692913 -2.9397764z" fill-rule="evenodd"/><path fill="#000000" fill-opacity="0.0" d="m30.692913 12.012567l0 0c0 1.6235943 -6.5782413 2.9397764 -14.692913 2.9397764c-8.114672 0 -14.692913 -1.3161821 -14.692913 -2.9397764l0 0c0 -1.6235933 6.5782413 -2.9397755 14.692913 -2.9397755c8.114672 0 14.692913 1.3161821 14.692913 2.9397755l0 8.073205c0 1.6235924 -6.5782413 2.9397755 -14.692913 2.9397755c-8.114672 0 -14.692913 -1.3161831 -14.692913 -2.9397755l0 -8.073205" fill-rule="evenodd"/><path stroke="#351c75" stroke-width="1.0" stroke-linejoin="round" stroke-linecap="butt" d="m30.692913 12.012567l0 0c0 1.6235943 -6.5782413 2.9397764 -14.692913 2.9397764c-8.114672 0 -14.692913 -1.3161821 -14.692913 -2.9397764l0 0c0 -1.6235933 6.5782413 -2.9397755 14.692913 -2.9397755c8.114672 0 14.692913 1.3161821 14.692913 2.9397755l0 8.073205c0 1.6235924 -6.5782413 2.9397755 -14.692913 2.9397755c-8.114672 0 -14.692913 -1.3161831 -14.692913 -2.9397755l0 -8.073205" fill-rule="evenodd"/><path fill="#f4cccc" d="m1.3070866 3.862348l0 0c0 1.6235933 6.5782413 2.939776 14.692913 2.939776c8.114672 0 14.692913 -1.3161826 14.692913 -2.939776l0 8.073204c0 1.6235933 -6.5782413 2.9397755 -14.692913 2.9397755c-8.114672 0 -14.692913 -1.3161821 -14.692913 -2.9397755z" fill-rule="evenodd"/><path fill="#f8e0e0" d="m1.3070866 3.862348l0 0c0 -1.6235933 6.5782413 -2.939776 14.692913 -2.939776c8.114672 0 14.692913 1.3161826 14.692913 2.939776l0 0c0 1.6235933 -6.5782413 2.939776 -14.692913 2.939776c-8.114672 0 -14.692913 -1.3161826 -14.692913 -2.939776z" fill-rule="evenodd"/><path fill="#000000" fill-opacity="0.0" d="m30.692913 3.862348l0 0c0 1.6235933 -6.5782413 2.939776 -14.692913 2.939776c-8.114672 0 -14.692913 -1.3161826 -14.692913 -2.939776l0 0c0 -1.6235933 6.5782413 -2.939776 14.692913 -2.939776c8.114672 0 14.692913 1.3161826 14.692913 2.939776l0 8.073204c0 1.6235933 -6.5782413 2.9397755 -14.692913 2.9397755c-8.114672 0 -14.692913 -1.3161821 -14.692913 -2.9397755l0 -8.073204" fill-rule="evenodd"/><path stroke="#351c75" stroke-width="1.0" stroke-linejoin="round" stroke-linecap="butt" d="m30.692913 3.862348l0 0c0 1.6235933 -6.5782413 2.939776 -14.692913 2.939776c-8.114672 0 -14.692913 -1.3161826 -14.692913 -2.939776l0 0c0 -1.6235933 6.5782413 -2.939776 14.692913 -2.939776c8.114672 0 14.692913 1.3161826 14.692913 2.939776l0 8.073204c0 1.6235933 -6.5782413 2.9397755 -14.692913 2.9397755c-8.114672 0 -14.692913 -1.3161821 -14.692913 -2.9397755l0 -8.073204" fill-rule="evenodd"/></g></svg>