<?xml version="1.0" standalone="no"?>
<!DOCTYPE svg PUBLIC "-//W3C//DTD SVG 1.1//EN" "http://www.w3.org/Graphics/SVG/1.1/DTD/svg11.dtd">
<svg width="32" height="32" version="1.1" xmlns="http://www.w3.org/2000/svg">
  <g>
    <defs>
    </defs>

    <g id="set0">
      <path id="shape0" d=" M0.6826928 -0.058527663 C-1.8339055 7.1213145 2.286095 14.361337 3.4783902 17.410105 C6.8799577 15.381417 13.838911 10.612167 14.66118 7.3574014 C11.495465 5.2562203 7.7952757 0.22987776 0.6826928 -0.058527663 Z" fill-rule="nonzero" fill="rgb(255,188,188)" fill-opacity="1.0" />
      <path id="stroke0" d=" M0.6826928 -0.058527663 L0.6826928 -0.058527663 C-1.480452 6.1129136 1.2597084 12.328817 2.8292632 15.889266 L2.8292632 15.889266 C3.0857253 16.471037 3.3109336 16.981909 3.4783902 17.410105 L3.4783902 17.410105 L3.4783902 17.410105 C6.8799577 15.381417 13.838911 10.612167 14.66118 7.3574014 L14.66118 7.3574014 L14.66118 7.3574014 C13.8889675 6.8448606 13.084953 6.158268 12.207366 5.408847 L12.207366 5.408847 C11.15299 4.5084567 9.992414 3.5173755 8.653195 2.628495 L8.653195 2.628495 C6.537447 1.2242088 3.9758277 0.075004406 0.6826928 -0.058527663 L0.6826928 -0.058527663 L0.6826928 -0.058527663 M0.6826928 -0.058527663 L0.6826928 -0.058527663 C3.9758277 0.075004406 6.537447 1.2242088 8.653195 2.628495 L8.653195 2.628495 C9.992414 3.5173755 11.15299 4.5084567 12.207366 5.408847 L12.207366 5.408847 C13.084953 6.158268 13.8889675 6.8448606 14.66118 7.3574014 L14.66118 7.3574014 C13.838911 10.612167 6.8799577 15.381417 3.4783902 17.410105 L3.4783902 17.410105 C3.3109336 16.981909 3.0857253 16.471037 2.8292632 15.889266 L2.8292632 15.889266 C1.2597084 12.328817 -1.480452 6.1129136 0.6826928 -0.058527663 Z" fill="rgb(0,0,0)" fill-opacity="1.0" />
    </g>
    <g id="set1">
      <path id="shape1" d=" M31.156357 -0.02738928 C33.672955 7.152453 29.552954 14.392475 28.360659 17.441244 C24.959091 15.412556 18.000137 10.643306 17.17787 7.38854 C20.343584 5.2873588 24.043774 0.26101613 31.156357 -0.02738928 Z" fill-rule="nonzero" fill="rgb(255,188,188)" fill-opacity="1.0" />
      <path id="stroke1" d=" M31.156357 -0.02738928 L31.156357 -0.02738928 C33.3195 6.1440516 30.57934 12.359956 29.009787 15.920404 L29.009787 15.920404 C28.753325 16.502174 28.528116 17.013048 28.360659 17.441244 L28.360659 17.441244 C24.959091 15.412556 18.000137 10.643306 17.17787 7.38854 L17.17787 7.38854 C17.95008 6.875999 18.754095 6.1894064 19.631683 5.4399853 L19.631683 5.4399853 C20.686058 4.539595 21.846634 3.548514 23.185854 2.6596334 L23.185854 2.6596334 C25.301601 1.2553473 27.863222 0.10614279 31.156357 -0.02738928 L31.156357 -0.02738928 M31.156357 -0.02738928 L31.156357 -0.02738928 L31.156357 -0.02738928 C27.863222 0.10614279 25.301601 1.2553473 23.185854 2.6596334 L23.185854 2.6596334 C21.846634 3.548514 20.686058 4.539595 19.631683 5.4399853 L19.631683 5.4399853 C18.754095 6.1894064 17.95008 6.875999 17.17787 7.38854 L17.17787 7.38854 L17.17787 7.38854 C18.000137 10.643306 24.959091 15.412556 28.360659 17.441244 L28.360659 17.441244 L28.360659 17.441244 C28.528116 17.013048 28.753325 16.502174 29.009787 15.920404 L29.009787 15.920404 C30.57934 12.359956 33.3195 6.1440516 31.156357 -0.02738928 Z" fill="rgb(0,0,0)" fill-opacity="1.0" />
    </g>
    <g id="set2">
      <path id="shape2" d=" M2.9183166 3.4238684 C1.1940731 8.506888 4.0168853 13.632512 4.8337846 15.79091 C7.1643634 14.354685 11.93228 10.978262 12.495656 8.674027 C10.326672 7.1864815 7.7914925 3.628047 2.9183166 3.4238684 Z" fill-rule="nonzero" fill="rgb(255,86,86)" fill-opacity="1.0" />
      <path id="stroke2" d=" M2.9183166 3.4238684 L2.9183166 3.4238684 C1.4362413 7.792983 3.313658 12.193576 4.389036 14.714221 L4.389036 14.714221 C4.5647507 15.126089 4.719052 15.487764 4.8337846 15.79091 L4.8337846 15.79091 L4.8337846 15.79091 C7.1643634 14.354685 11.93228 10.978262 12.495656 8.674027 L12.495656 8.674027 L12.495656 8.674027 C11.966577 8.311171 11.415707 7.8250923 10.814429 7.2945347 L10.814429 7.2945347 C10.092026 6.657097 9.296859 5.955454 8.379294 5.3261647 L8.379294 5.3261647 C6.9296927 4.3319907 5.174603 3.5184033 2.9183166 3.4238684 L2.9183166 3.4238684 L2.9183166 3.4238684 M2.9183166 3.4238684 L2.9183166 3.4238684 C5.174603 3.5184033 6.9296927 4.3319907 8.379294 5.3261647 L8.379294 5.3261647 C9.296859 5.955454 10.092026 6.657097 10.814429 7.2945347 L10.814429 7.2945347 C11.415707 7.8250923 11.966577 8.311171 12.495656 8.674027 L12.495656 8.674027 C11.93228 10.978262 7.1643634 14.354685 4.8337846 15.79091 L4.8337846 15.79091 C4.719052 15.487764 4.5647507 15.126089 4.389036 14.714221 L4.389036 14.714221 C3.313658 12.193576 1.4362413 7.792983 2.9183166 3.4238684 Z" fill="rgb(0,0,0)" fill-opacity="1.0" />
    </g>
    <g id="set3">
      <path id="shape3" d=" M29.06705 3.4238684 C30.791294 8.506888 27.968483 13.632512 27.151583 15.79091 C24.821005 14.354685 20.05309 10.978262 19.489712 8.674027 C21.658697 7.1864815 24.193876 3.628047 29.06705 3.4238684 Z" fill-rule="nonzero" fill="rgb(255,86,86)" fill-opacity="1.0" />
      <path id="stroke3" d=" M29.06705 3.4238684 L29.06705 3.4238684 C30.549128 7.792983 28.671711 12.193576 27.596333 14.714221 L27.596333 14.714221 C27.420618 15.126089 27.266315 15.487764 27.151583 15.79091 L27.151583 15.79091 C24.821005 14.354685 20.05309 10.978262 19.489712 8.674027 L19.489712 8.674027 C20.018791 8.311171 20.56966 7.8250923 21.170938 7.2945347 L21.170938 7.2945347 C21.893343 6.657097 22.688509 5.955454 23.606073 5.3261647 L23.606073 5.3261647 C25.055676 4.3319907 26.810764 3.5184033 29.06705 3.4238684 L29.06705 3.4238684 M29.06705 3.4238684 L29.06705 3.4238684 L29.06705 3.4238684 C26.810764 3.5184033 25.055676 4.3319907 23.606073 5.3261647 L23.606073 5.3261647 C22.688509 5.955454 21.893343 6.657097 21.170938 7.2945347 L21.170938 7.2945347 C20.56966 7.8250923 20.018791 8.311171 19.489712 8.674027 L19.489712 8.674027 L19.489712 8.674027 C20.05309 10.978262 24.821005 14.354685 27.151583 15.79091 L27.151583 15.79091 L27.151583 15.79091 C27.266315 15.487764 27.420618 15.126089 27.596333 14.714221 L27.596333 14.714221 C28.671711 12.193576 30.549128 7.792983 29.06705 3.4238684 Z" fill="rgb(0,0,0)" fill-opacity="1.0" />
    </g>
    <g id="set4">
      <path id="shape4" d=" M31.432985 19.548239 C33.260033 26.515272 29.05147 31.956104 16.164059 31.956104 C3.2766519 31.956104 -0.6709142 26.629631 0.24261434 19.891314 C1.1561399 13.152998 8.23579 7.140375 16.164059 7.140375 C24.092329 7.140375 29.605942 12.581206 31.432985 19.548239 Z" fill-rule="nonzero" fill="rgb(255,188,188)" fill-opacity="1.0" />
      <path id="stroke4" d=" M31.432985 19.548239 L31.432985 19.548239 C32.829685 24.874243 30.699202 29.30834 23.860678 31.101686 L23.860678 31.101686 C21.753614 31.654245 19.199589 31.956104 16.164059 31.956104 L16.164059 31.956104 L16.164059 31.956104 C4.443288 31.956104 0.11705533 27.550343 0.11705533 21.683664 L0.11705533 21.683664 C0.11705533 21.09972 0.15991692 20.501303 0.24261434 19.891314 L0.24261434 19.891314 L0.24261434 19.891314 C1.1561399 13.152998 8.23579 7.140375 16.164059 7.140375 L16.164059 7.140375 L16.164059 7.140375 C24.092329 7.140375 29.605942 12.581206 31.432985 19.548239 L31.432985 19.548239 L31.432985 19.548239 M31.432985 19.548239 L31.432985 19.548239 C29.605942 12.581206 24.092329 7.140375 16.164059 7.140375 L16.164059 7.140375 C8.23579 7.140375 1.1561399 13.152998 0.24261434 19.891314 L0.24261434 19.891314 C0.15991692 20.501303 0.11705533 21.09972 0.11705533 21.683664 L0.11705533 21.683664 C0.11705533 27.550343 4.443288 31.956104 16.164059 31.956104 L16.164059 31.956104 C19.199589 31.956104 21.753614 31.654245 23.860678 31.101686 L23.860678 31.101686 C30.699202 29.30834 32.829685 24.874243 31.432985 19.548239 Z" fill="rgb(0,0,0)" fill-opacity="1.0" />
    </g>
    <g id="set5">
      <path id="shape5" d=" M22.934938 24.251135 C23.760532 20.953186 21.858795 18.377686 16.035318 18.377686 C10.211844 18.377686 8.428045 20.899052 8.840844 24.088736 C9.253642 27.278418 12.452746 30.124582 16.035318 30.124582 C19.617891 30.124582 22.109346 27.549084 22.934938 24.251135 Z" fill-rule="nonzero" fill="rgb(255,86,86)" fill-opacity="1.0" />
      <path id="stroke5" d=" M22.934938 24.251135 L22.934938 24.251135 C23.57933 21.67702 22.5622 19.543028 19.315609 18.730291 L19.315609 18.730291 C18.402676 18.50175 17.313456 18.377686 16.035318 18.377686 L16.035318 18.377686 L16.035318 18.377686 C10.739017 18.377686 8.784108 20.46322 8.784108 23.2403 L8.784108 23.2403 C8.784108 23.516718 8.803475 23.799988 8.840844 24.088736 L8.840844 24.088736 C9.253642 27.278418 12.452746 30.124582 16.035318 30.124582 L16.035318 30.124582 L16.035318 30.124582 C19.617891 30.124582 22.109346 27.549084 22.934938 24.251135 L22.934938 24.251135 M22.934938 24.251135 L22.934938 24.251135 L22.934938 24.251135 C22.109346 27.549084 19.617891 30.124582 16.035318 30.124582 L16.035318 30.124582 C12.452746 30.124582 9.253642 27.278418 8.840844 24.088736 L8.840844 24.088736 L8.840844 24.088736 C8.803475 23.799988 8.784108 23.516718 8.784108 23.2403 L8.784108 23.2403 C8.784108 20.46322 10.739017 18.377686 16.035318 18.377686 L16.035318 18.377686 C17.313456 18.377686 18.402676 18.50175 19.315609 18.730291 L19.315609 18.730291 C22.5622 19.543028 23.57933 21.67702 22.934938 24.251135 Z" fill="rgb(0,0,0)" fill-opacity="1.0" />
    </g>
    <g id="set6">
      <path id="shape6" d=" M11.138396 16.593264 C10.632988 17.88421 9.427752 18.619282 8.4464245 18.235092 C7.4650974 17.8509 7.0792885 16.492931 7.5846963 15.201984 C8.090104 13.911037 9.295341 13.175965 10.276668 13.560157 C11.257995 13.944347 11.643804 15.302316 11.138396 16.593264 Z" fill-rule="nonzero" fill="rgb(30,30,30)" fill-opacity="1.0" />
      <path id="stroke6" d=" M11.138396 16.593264 L11.138396 16.593264 C10.632988 17.88421 9.427752 18.619282 8.4464245 18.235092 L8.4464245 18.235092 L8.4464245 18.235092 C7.4650974 17.8509 7.0792885 16.492931 7.5846963 15.201984 L7.5846963 15.201984 L7.5846963 15.201984 C8.090104 13.911037 9.295341 13.175965 10.276668 13.560157 L10.276668 13.560157 L10.276668 13.560157 C11.257995 13.944347 11.643804 15.302316 11.138396 16.593264 L11.138396 16.593264 L11.138396 16.593264 M11.138396 16.593264 L11.138396 16.593264 C11.643804 15.302316 11.257995 13.944347 10.276668 13.560157 L10.276668 13.560157 C9.295341 13.175965 8.090104 13.911037 7.5846963 15.201984 L7.5846963 15.201984 C7.0792885 16.492931 7.4650974 17.8509 8.4464245 18.235092 L8.4464245 18.235092 C9.427752 18.619282 10.632988 17.88421 11.138396 16.593264 Z" fill="rgb(0,0,0)" fill-opacity="1.0" />
    </g>
    <g id="set7">
      <path id="shape7" d=" M12.219753 21.949343 L12.219753 23.743599 C12.219753 24.36315 12.678981 24.865395 13.245467 24.865395 L13.445264 24.865395 C14.01175 24.865395 14.470978 24.36315 14.470978 23.743599 L14.470978 21.949343 C14.470978 21.329792 14.01175 20.827547 13.445264 20.827547 L13.245467 20.827547 C12.678981 20.827547 12.219753 21.329792 12.219753 21.949343 Z" fill-rule="nonzero" fill="rgb(30,30,30)" fill-opacity="1.0" />
      <path id="stroke7" d=" M12.219753 21.949343 L12.219753 21.949343 L12.219753 23.743599 L12.219753 23.743599 L12.219753 23.743599 C12.219753 24.36315 12.678981 24.865395 13.245467 24.865395 L13.245467 24.865395 L13.245467 24.865395 L13.445264 24.865395 L13.445264 24.865395 L13.445264 24.865395 C14.01175 24.865395 14.470978 24.36315 14.470978 23.743599 L14.470978 23.743599 L14.470978 23.743599 L14.470978 21.949343 L14.470978 21.949343 L14.470978 21.949343 C14.470978 21.329792 14.01175 20.827547 13.445264 20.827547 L13.445264 20.827547 L13.445264 20.827547 L13.245467 20.827547 L13.245467 20.827547 L13.245467 20.827547 C12.678981 20.827547 12.219753 21.329792 12.219753 21.949343 L12.219753 21.949343 L12.219753 21.949343 M12.219753 21.949343 L12.219753 21.949343 C12.219753 21.329792 12.678981 20.827547 13.245467 20.827547 L13.245467 20.827547 L13.445264 20.827547 L13.445264 20.827547 C14.01175 20.827547 14.470978 21.329792 14.470978 21.949343 L14.470978 21.949343 L14.470978 23.743599 L14.470978 23.743599 C14.470978 24.36315 14.01175 24.865395 13.445264 24.865395 L13.445264 24.865395 L13.245467 24.865395 L13.245467 24.865395 C12.678981 24.865395 12.219753 24.36315 12.219753 23.743599 L12.219753 23.743599 L12.219753 21.949343 Z" fill="rgb(0,0,0)" fill-opacity="1.0" />
    </g>
    <g id="set8">
      <path id="shape8" d=" M24.518972 15.205694 C25.024378 16.496643 24.638569 17.85461 23.657242 18.2388 C22.675913 18.62299 21.470678 17.887917 20.965271 16.59697 C20.459864 15.306022 20.845675 13.948053 21.827002 13.563864 C22.808329 13.179673 24.013565 13.914746 24.518972 15.205694 Z" fill-rule="nonzero" fill="rgb(30,30,30)" fill-opacity="1.0" />
      <path id="stroke8" d=" M24.518972 15.205694 L24.518972 15.205694 C25.024378 16.496643 24.638569 17.85461 23.657242 18.2388 L23.657242 18.2388 L23.657242 18.2388 C22.675913 18.62299 21.470678 17.887917 20.965271 16.59697 L20.965271 16.59697 L20.965271 16.59697 C20.459864 15.306022 20.845675 13.948053 21.827002 13.563864 L21.827002 13.563864 L21.827002 13.563864 C22.808329 13.179673 24.013565 13.914746 24.518972 15.205694 L24.518972 15.205694 L24.518972 15.205694 M24.518972 15.205694 L24.518972 15.205694 C24.013565 13.914746 22.808329 13.179673 21.827002 13.563864 L21.827002 13.563864 C20.845675 13.948053 20.459864 15.306022 20.965271 16.59697 L20.965271 16.59697 C21.470678 17.887917 22.675913 18.62299 23.657242 18.2388 L23.657242 18.2388 C24.638569 17.85461 25.024378 16.496643 24.518972 15.205694 Z" fill="rgb(0,0,0)" fill-opacity="1.0" />
    </g>
    <g id="set9">
      <path id="shape9" d=" M17.340649 21.949343 L17.340649 23.743599 C17.340649 24.36315 17.799877 24.865395 18.366364 24.865395 L18.56616 24.865395 C19.132647 24.865395 19.591873 24.36315 19.591873 23.743599 L19.591873 21.949343 C19.591873 21.329792 19.132647 20.827547 18.56616 20.827547 L18.366364 20.827547 C17.799877 20.827547 17.340649 21.329792 17.340649 21.949343 Z" fill-rule="nonzero" fill="rgb(30,30,30)" fill-opacity="1.0" />
      <path id="stroke9" d=" M17.340649 21.949343 L17.340649 21.949343 L17.340649 23.743599 L17.340649 23.743599 L17.340649 23.743599 C17.340649 24.36315 17.799877 24.865395 18.366364 24.865395 L18.366364 24.865395 L18.366364 24.865395 L18.56616 24.865395 L18.56616 24.865395 L18.56616 24.865395 C19.132647 24.865395 19.591873 24.36315 19.591873 23.743599 L19.591873 23.743599 L19.591873 23.743599 L19.591873 21.949343 L19.591873 21.949343 L19.591873 21.949343 C19.591873 21.329792 19.132647 20.827547 18.56616 20.827547 L18.56616 20.827547 L18.56616 20.827547 L18.366364 20.827547 L18.366364 20.827547 L18.366364 20.827547 C17.799877 20.827547 17.340649 21.329792 17.340649 21.949343 L17.340649 21.949343 L17.340649 21.949343 M17.340649 21.949343 L17.340649 21.949343 C17.340649 21.329792 17.799877 20.827547 18.366364 20.827547 L18.366364 20.827547 L18.56616 20.827547 L18.56616 20.827547 C19.132647 20.827547 19.591873 21.329792 19.591873 21.949343 L19.591873 21.949343 L19.591873 23.743599 L19.591873 23.743599 C19.591873 24.36315 19.132647 24.865395 18.56616 24.865395 L18.56616 24.865395 L18.366364 24.865395 L18.366364 24.865395 C17.799877 24.865395 17.340649 24.36315 17.340649 23.743599 L17.340649 23.743599 L17.340649 21.949343 Z" fill="rgb(0,0,0)" fill-opacity="1.0" />
    </g>

  </g>
</svg>